<?xml version="1.0" encoding="utf-8"?>
<!-- Generator: Adobe Illustrator 26.0.3, SVG Export Plug-In . SVG Version: 6.00 Build 0)  -->
<svg version="1.0" id="katman_1" xmlns="http://www.w3.org/2000/svg" xmlns:xlink="http://www.w3.org/1999/xlink" x="0px" y="0px"
	 viewBox="0 0 800 600" style="enable-background:new 0 0 800 600;" xml:space="preserve">
<style type="text/css">
	.st0{fill:#E2621B;}
</style>
<g>
	<g>
		<path class="st0" d="M361.7,290.4c0,0-30.4-128.6,62-203.3c0,0,112.5-27.7,186.5,42.4l-57.4,80.9
			C552.8,210.4,396,118.6,361.7,290.4z"/>
		<path class="st0" d="M393,94.8c0,0-78.6,24.9-116.1,98.2c0,0-38.7,5.8-70.5-20.2c0,0-20.8,72.2,6.9,123.7L178,277.4
			c0,0,16.2,117.9,153.1,194.7h-45.7c73.8,55.9,169.4,64.9,241.6,23.2c68.8-39.7,89.9-110.2,94.6-127.4c-4.3,3.7-86.6,71.8-176,39.9
			c-42.6-15.2-67.5-46.2-76.4-58.7c-36-50.2-31.4-104.5-29.5-127.7C345.2,156.6,378.3,112.3,393,94.8z"/>
	</g>
</g>
</svg>
